<svg width="127" height="33" viewBox="0 0 127 33" fill="none" xmlns="http://www.w3.org/2000/svg">
<path d="M28.267 0H22.0836L0 33H6.1834L28.267 0Z" fill="#4CC9F0"/>
<path d="M53.0006 0L37.1004 23.76L32.3215 16.6211L29.2298 21.2411L37.1004 33L59.184 0H53.0006Z" fill="#7209B7"/>
<path d="M17.3047 33L33.2049 9.24L37.9838 16.3789L41.0755 11.7589L33.2049 0L11.1213 33H17.3047Z" fill="white"/>
<path d="M71.4404 7.78613V26.9554H64.0689V7.78613H71.4404Z" fill="white"/>
<path d="M99.0802 26.9596H73.2821V14.7579H91.7087V13.016H73.2821V7.78613H99.0802V26.9596ZM80.6536 21.7297H91.7087V19.9878H80.6536V21.7297Z" fill="white"/>
<path d="M100.922 7.78613H108.293L113.823 21.7297L119.353 7.78613H126.724L119.353 26.9554H108.298L100.926 7.78613H100.922Z" fill="white"/>
</svg>
